<svg id="Capa_1" enable-background="new 0 0 511.958 511.958" height="512" viewBox="0 0 511.958 511.958" width="512" xmlns="http://www.w3.org/2000/svg"><g><g><path d="m359.648 288.299c-23.38 23.38-63.009 39.97-63.009 39.97v138.229h-81.319v-138.23s-39.63-16.59-63.009-39.97c0 0-7.12-68.779 25.41-123.659 0 0 9.15-12.2 37.6-12.2 0 0-10.16 50.96 0 82.399 0 0 20.33 9.9 40.66 9.9s40.66-9.9 40.66-9.9c10.16-31.44 0-82.399 0-82.399 28.45 0 37.6 12.2 37.6 12.2 32.527 54.88 25.407 123.66 25.407 123.66z" fill="#f6e266"/><path d="m237.279 309.468v157.028h-21.96v-138.228s-39.63-16.59-63.009-39.97c0 0-7.12-68.779 25.41-123.659 0 0 9.15-12.2 37.6-12.2 0 0-43.15 3.68-38.76 121.879 0 .001 27.609 28.64 60.719 35.15z" fill="#f1d333"/><path d="m498.55 218.85c-2.71-8.46-10.17-14.509-18.979-15.649-11.15-1.44-22.299-2.55-33.439-3.31-8.78-.61-16.369-6.21-19.729-14.349-.03-.09-.07-.18-.11-.27-3.37-8.13-1.98-17.449 3.81-24.089 7.33-8.42 14.439-17.079 21.299-25.989 5.43-7.03 6.42-16.589 2.35-24.489-11.91-23.089-29.409-40.588-52.498-52.498-7.9-4.07-17.459-3.08-24.489 2.35-8.91 6.86-17.569 13.969-25.989 21.299-6.64 5.79-15.959 7.18-24.089 3.81-.09-.04-.18-.08-.27-.11-8.14-3.36-13.739-10.95-14.349-19.729-.76-11.14-1.87-22.289-3.31-33.439-1.14-8.81-7.19-16.269-15.649-18.979-24.749-7.9-49.508-7.9-74.257 0-8.46 2.71-14.509 10.17-15.649 18.979-1.44 11.15-2.55 22.299-3.31 33.439-.61 8.78-6.21 16.369-14.349 19.729-.09.03-.18.07-.27.11-8.13 3.37-17.449 1.98-24.089-3.81-8.42-7.33-17.079-14.439-25.989-21.299-7.03-5.43-16.589-6.42-24.489-2.35-23.089 11.91-40.588 29.409-52.498 52.498-4.07 7.9-3.08 17.459 2.35 24.489 6.86 8.91 13.969 17.569 21.299 25.989 5.79 6.64 7.18 15.959 3.81 24.089-.04.09-.08.18-.11.27-3.36 8.14-10.95 13.739-19.729 14.349-11.14.76-22.289 1.87-33.439 3.31-8.81 1.14-16.269 7.19-18.979 15.649-7.9 24.749-7.9 49.508 0 74.257 2.71 8.46 10.17 14.509 18.979 15.649 11.15 1.44 22.299 2.55 33.439 3.31 8.78.61 16.369 6.21 19.729 14.349.03.09.07.18.11.27 3.37 8.13 1.98 17.449-3.81 24.089-7.33 8.42-14.439 17.079-21.299 25.989-5.43 7.03-6.42 16.589-2.35 24.489 11.91 23.089 29.409 40.588 52.498 52.498 7.9 4.07 17.459 3.08 24.489-2.35 8.91-6.86 17.569-13.969 25.989-21.299 6.64-5.79 15.959-7.18 24.089-3.81.09.04.18.08.27.11 8.14 3.36 13.739 10.95 14.349 19.729.76 11.14 1.87 22.289 3.31 33.439 1.14 8.81 7.19 16.269 15.649 18.979 24.749 7.9 49.508 7.9 74.257 0 8.46-2.71 14.509-10.17 15.649-18.979 1.44-11.15 2.55-22.299 3.31-33.439.61-8.78 6.21-16.369 14.349-19.729.09-.03.18-.07.27-.11 8.13-3.37 17.449-1.98 24.089 3.81 8.42 7.33 17.079 14.439 25.989 21.299 7.03 5.43 16.589 6.42 24.489 2.35 23.089-11.91 40.588-29.409 52.498-52.498 4.07-7.9 3.08-17.459-2.35-24.489-6.86-8.91-13.969-17.569-21.299-25.989-5.79-6.64-7.18-15.959-3.81-24.089.04-.09.08-.18.11-.27 3.36-8.14 10.95-13.739 19.729-14.349 11.14-.76 22.289-1.87 33.439-3.31 8.81-1.14 16.269-7.19 18.979-15.649 7.899-24.749 7.899-49.508 0-74.257zm-242.571 192.898c-86.03 0-155.769-69.74-155.769-155.769 0-86.03 69.74-155.769 155.769-155.769s155.769 69.74 155.769 155.769c0 86.03-69.739 155.769-155.769 155.769z" fill="#b9c1cb"/><path d="m85.711 407.362c-4.07-8.23-3.08-18.19 2.35-25.52 6.86-9.28 13.97-18.31 21.3-27.08 5.79-6.92 7.18-16.63 3.81-25.1-.04-.1-.08-.19-.11-.29-3.36-8.48-10.95-14.31-19.73-14.95-11.14-.79-22.29-1.95-33.44-3.45-8.81-1.19-16.27-7.49-18.98-16.31-7.9-25.79-7.9-51.589 0-77.379 2.71-8.82 10.17-15.12 18.98-16.31 11.15-1.5 22.3-2.66 33.44-3.45 8.78-.64 16.37-6.47 19.73-14.95.03-.1.07-.19.11-.29 3.37-8.47 1.98-18.18-3.81-25.1-7.33-8.77-14.44-17.8-21.3-27.08-5.43-7.33-6.42-17.29-2.35-25.52 9.93-20.06 23.75-36.08 41.45-48.039-5.41-1.5-11.29-1-16.46 1.66-23.09 11.91-40.58 29.4-52.489 52.489-4.07 7.9-3.08 17.46 2.35 24.49 6.86 8.91 13.97 17.57 21.29 25.99 5.79 6.64 7.18 15.96 3.81 24.09-.04.09-.08.18-.11.27-3.36 8.14-10.94 13.74-19.72 14.35-11.14.76-22.29 1.87-33.44 3.31-8.81 1.14-16.27 7.19-18.98 15.65-7.9 24.75-7.9 49.51 0 74.259 2.71 8.46 10.17 14.51 18.98 15.65 11.15 1.44 22.3 2.55 33.44 3.31 8.78.61 16.36 6.21 19.72 14.35.03.09.07.18.11.27 3.37 8.13 1.98 17.45-3.81 24.09-7.32 8.42-14.43 17.08-21.29 25.99-5.43 7.03-6.42 16.59-2.35 24.49 11.91 23.09 29.4 40.58 52.489 52.489 5.17 2.66 11.05 3.16 16.46 1.66-17.7-11.959-31.52-27.979-41.45-48.039zm144.988 81.619c-1.44-11.62-2.55-23.24-3.31-34.85-.61-9.15-6.21-17.06-14.35-20.56-.09-.03-.18-.07-.27-.11-5.82-2.52-12.25-2.49-17.87-.06 2.87 3.57 4.66 7.97 4.99 12.72.76 11.14 1.87 22.29 3.31 33.44 1.14 8.81 7.19 16.27 15.65 18.98 6.14 1.96 12.29 3.44 18.43 4.43-3.55-3.7-5.909-8.6-6.58-13.99zm-11.849-475.575c-8.46 2.71-14.51 10.17-15.65 18.98-1.44 11.15-2.55 22.3-3.31 33.44-.33 4.75-2.12 9.15-4.99 12.72 5.62 2.43 12.05 2.46 17.87-.06.09-.04.18-.08.27-.11 8.14-3.5 13.74-11.41 14.35-20.56.76-11.61 1.87-23.23 3.31-34.85.67-5.39 3.03-10.29 6.58-13.99-6.141.99-12.29 2.47-18.43 4.43z" fill="#a0aab7"/></g><g><path d="m255.979 419.248c90.027 0 163.27-73.242 163.27-163.27s-73.243-163.268-163.27-163.268-163.27 73.242-163.27 163.269 73.243 163.269 163.27 163.269zm0-311.538c81.756 0 148.27 66.513 148.27 148.269 0 64.905-41.923 120.197-100.11 140.235v-63.063c11.401-5.215 41.202-19.939 60.813-39.55 1.218-1.218 1.979-2.818 2.156-4.531.106-1.025 2.543-25.457-2.274-57.13-.624-4.096-4.465-6.908-8.543-6.287-4.095.623-6.91 4.448-6.287 8.543 3.638 23.909 2.847 43.765 2.39 50.695-22.259 21.057-58.281 36.302-58.651 36.458-2.788 1.167-4.604 3.895-4.604 6.918v72.239c-10.665 2.446-21.763 3.741-33.159 3.741s-22.494-1.295-33.159-3.741v-72.239c0-3.021-1.815-5.749-4.602-6.917-.372-.156-36.391-15.4-58.649-36.455-.826-12.816-2.721-69.82 24.257-115.845 1.207-1.229 7.533-6.92 22.539-8.627-2.493 16.708-6.207 51.887 1.818 76.721.628 1.941 2.019 3.543 3.853 4.437.894.435 22.135 10.657 43.943 10.657s43.049-10.222 43.942-10.657c1.835-.893 3.226-2.495 3.854-4.437 8.025-24.834 4.312-60.012 1.818-76.721 15.005 1.706 21.331 7.397 22.538 8.626 6.449 11.008 11.733 23.461 15.709 37.028 1.165 3.974 5.326 6.255 9.307 5.088 3.975-1.165 6.253-5.332 5.088-9.306-4.398-15.008-10.301-28.817-17.545-41.043-.138-.234-.289-.459-.452-.677-1.167-1.556-12.303-15.2-43.6-15.2-2.245 0-4.372 1.007-5.797 2.743s-1.996 4.019-1.559 6.222c.094.474 8.993 46.071 1.142 75.491-6.009 2.524-20.348 7.844-34.445 7.844-14.026 0-28.422-5.329-34.447-7.851-7.849-29.42 1.05-75.01 1.144-75.482.439-2.203-.132-4.487-1.557-6.223s-3.553-2.743-5.799-2.743c-31.297 0-42.433 13.644-43.6 15.2-.163.217-.313.442-.452.676-33.409 56.363-26.72 125.346-26.418 128.255.177 1.713.938 3.313 2.156 4.531 19.611 19.611 49.412 34.334 60.813 39.55v63.063c-58.187-20.038-100.11-75.33-100.11-140.235-.001-81.757 66.513-148.27 148.269-148.27z"/><path d="m505.692 216.581c-3.548-11.13-13.426-19.302-25.163-20.82-11.174-1.444-22.574-2.573-33.882-3.354-5.9-.41-10.999-4.138-13.307-9.729-.009-.022-.019-.044-.027-.066-.042-.103-.084-.205-.128-.304-2.269-5.573-1.29-11.768 2.568-16.193 7.394-8.491 14.657-17.351 21.596-26.34 7.217-9.374 8.419-22.133 3.063-32.503-12.582-24.395-31.332-43.144-55.724-55.725-10.375-5.358-23.134-4.156-32.515 3.067-8.982 6.934-17.842 14.198-26.335 21.593-4.424 3.856-10.619 4.835-16.193 2.564-.099-.043-.198-.085-.303-.127-.021-.009-.042-.018-.063-.026-5.592-2.308-9.319-7.407-9.729-13.304-.782-11.317-1.911-22.717-3.354-33.884-1.518-11.739-9.689-21.617-20.815-25.163-26.146-8.357-52.66-8.355-78.799-.002-11.132 3.548-19.304 13.426-20.821 25.164-1.443 11.167-2.572 22.567-3.354 33.882-.409 5.899-4.137 10.998-9.729 13.307-.02.008-.039.016-.059.024-.105.042-.209.085-.31.13-5.576 2.27-11.77 1.291-16.195-2.568-8.489-7.392-17.349-14.656-26.339-21.596-9.374-7.216-22.132-8.418-32.504-3.063-24.395 12.583-43.145 31.333-55.725 55.723-5.357 10.373-4.155 23.133 3.067 32.514 6.933 8.981 14.196 17.841 21.593 26.335 3.856 4.423 4.835 10.617 2.565 16.191-.044.098-.086.198-.128.302-.009.022-.019.044-.027.066-2.308 5.591-7.406 9.319-13.304 9.729-11.311.781-22.711 1.909-33.885 3.354-11.737 1.518-21.615 9.69-25.161 20.815-8.356 26.146-8.356 52.66-.002 78.801 3.548 11.13 13.426 19.302 25.163 20.82 11.174 1.444 22.574 2.573 33.882 3.354 5.9.41 10.999 4.138 13.307 9.729.009.022.019.044.027.066.042.103.084.205.128.304 2.269 5.573 1.29 11.767-2.566 16.191-3.418 3.922-6.896 8.03-10.336 12.21-2.633 3.198-2.175 7.924 1.023 10.557 3.196 2.632 7.925 2.175 10.557-1.023 3.353-4.072 6.739-8.073 10.063-11.888 7.648-8.772 9.593-20.992 5.075-31.891-.022-.053-.045-.106-.068-.159-.02-.048-.04-.097-.061-.145-4.507-10.863-14.507-18.109-26.113-18.916-11.014-.761-22.115-1.859-32.994-3.266-5.986-.774-11.009-4.895-12.798-10.505-7.388-23.116-7.388-46.557.002-69.678 1.787-5.604 6.81-9.726 12.796-10.5 10.879-1.406 21.98-2.505 32.997-3.266 11.604-.806 21.604-8.053 26.11-18.917.021-.047.04-.094.06-.142.023-.053.047-.107.069-.161 4.518-10.898 2.573-23.118-5.072-31.887-7.2-8.27-14.275-16.899-21.023-25.64-3.682-4.782-4.317-11.248-1.616-16.476 11.124-21.569 27.701-38.146 49.274-49.274 5.225-2.698 11.692-2.063 16.466 1.613 8.75 6.755 17.379 13.83 25.644 21.026 8.773 7.648 20.992 9.592 31.891 5.075.05-.021.099-.042.147-.063.052-.021.104-.043.157-.065 10.863-4.508 18.109-14.508 18.915-26.113.762-11.021 1.86-22.122 3.267-32.995.773-5.987 4.895-11.009 10.505-12.797 23.116-7.388 46.558-7.388 69.678.002 5.604 1.787 9.726 6.809 10.499 12.796 1.406 10.873 2.505 21.974 3.267 32.997.806 11.603 8.052 21.603 18.916 26.111.052.022.104.043.156.065.049.022.098.043.147.063 10.896 4.517 23.117 2.573 31.887-5.072 8.269-7.199 16.897-14.274 25.64-21.023 4.781-3.682 11.248-4.318 16.477-1.617 21.57 11.126 38.147 27.703 49.273 49.276 2.699 5.225 2.063 11.691-1.612 16.465-6.754 8.749-13.829 17.378-21.026 25.644-7.648 8.772-9.593 20.992-5.075 31.891.022.053.045.106.068.159.02.048.04.097.061.145 4.507 10.863 14.507 18.109 26.113 18.916 11.014.761 22.115 1.859 32.994 3.266 5.986.774 11.009 4.895 12.798 10.505 7.388 23.116 7.388 46.557-.002 69.678-1.787 5.604-6.81 9.726-12.796 10.5-10.879 1.406-21.98 2.505-32.997 3.266-11.604.806-21.604 8.053-26.11 18.917-.021.047-.04.094-.06.142-.023.053-.047.107-.069.161-4.518 10.898-2.573 23.118 5.072 31.887 7.2 8.27 14.275 16.899 21.023 25.64 3.682 4.782 4.317 11.248 1.616 16.476-11.124 21.569-27.701 38.146-49.274 49.274-5.223 2.698-11.69 2.063-16.466-1.613-8.75-6.755-17.379-13.83-25.644-21.026-8.773-7.648-20.992-9.592-31.891-5.075-.05.021-.099.042-.147.063-.052.021-.104.043-.157.065-10.863 4.508-18.109 14.508-18.915 26.113-.762 11.021-1.86 22.122-3.267 32.995-.773 5.987-4.895 11.009-10.505 12.797-23.116 7.388-46.558 7.388-69.678-.002-5.604-1.787-9.726-6.809-10.499-12.796-1.406-10.873-2.505-21.974-3.267-32.997-.806-11.603-8.052-21.603-18.916-26.111-.052-.022-.104-.043-.156-.065-.049-.022-.098-.043-.147-.063-10.897-4.517-23.118-2.573-31.887 5.072-8.269 7.199-16.897 14.274-25.64 21.023-4.782 3.682-11.248 4.317-16.477 1.617-21.57-11.126-38.147-27.703-49.275-49.279-1.394-2.695-1.929-5.743-1.549-8.814.509-4.111-2.411-7.856-6.522-8.365-4.099-.507-7.855 2.411-8.364 6.522-.753 6.086.323 12.153 3.107 17.539 12.582 24.395 31.332 43.144 55.724 55.725 10.373 5.357 23.133 4.155 32.515-3.067 8.982-6.934 17.842-14.198 26.335-21.593 4.425-3.856 10.621-4.834 16.193-2.564.099.043.198.085.303.127.021.009.042.018.063.026 5.592 2.308 9.319 7.407 9.729 13.304.782 11.317 1.911 22.717 3.354 33.884 1.518 11.739 9.689 21.617 20.815 25.163 13.074 4.179 26.238 6.268 39.403 6.267 13.163 0 26.327-2.089 39.396-6.266 11.132-3.548 19.304-13.426 20.821-25.164 1.443-11.167 2.572-22.567 3.354-33.882.409-5.899 4.137-10.998 9.729-13.307.02-.008.039-.016.059-.024.105-.042.209-.085.31-.13 5.576-2.269 11.77-1.291 16.195 2.568 8.489 7.392 17.349 14.656 26.339 21.596 9.374 7.216 22.133 8.418 32.504 3.063 24.395-12.583 43.145-31.333 55.725-55.723 5.357-10.373 4.155-23.133-3.067-32.514-6.933-8.981-14.196-17.841-21.593-26.335-3.856-4.423-4.835-10.617-2.565-16.191.044-.098.086-.198.128-.302.009-.022.019-.044.027-.066 2.308-5.591 7.406-9.319 13.304-9.729 11.311-.781 22.711-1.909 33.885-3.354 11.737-1.518 21.615-9.69 25.161-20.815 8.356-26.144 8.356-52.658.002-78.799z"/></g></g></svg>